<?xml version="1.0" standalone="no"?><!DOCTYPE svg PUBLIC "-//W3C//DTD SVG 1.1//EN" "http://www.w3.org/Graphics/SVG/1.1/DTD/svg11.dtd"><svg t="1583463475799" class="icon" viewBox="0 0 1024 1024" version="1.1" xmlns="http://www.w3.org/2000/svg" p-id="8636" xmlns:xlink="http://www.w3.org/1999/xlink" width="300" height="300"><defs><style type="text/css"></style></defs><path d="M511.6 0.9C229.8 0.9 0.6 230.1 0.6 511.9s229.2 511 511 511 511-229.2 511-511S793.4 0.9 511.6 0.9z m0 941.9C274 942.8 80.7 749.5 80.7 511.9 80.7 274.4 274 81 511.6 81c237.6 0 430.8 193.3 430.8 430.9 0 237.6-193.3 430.9-430.8 430.9z" fill="#1296DB" p-id="8637"></path><path d="M741.6 474H552.5V308.2c0-22.2-18-40.1-40.1-40.1s-40 18-40 40.1V474H294.9c-22.2 0-40.1 18-40.1 40 0 22.2 18 40.1 40.1 40.1h177.4V749c0 22.2 18 40 40 40 22.2 0 40.1-17.9 40.1-40V554.2h189.1c22.2 0 40-17.9 40-40.1 0.1-22.1-17.8-40.1-39.9-40.1z" fill="#1296DB" p-id="8638"></path></svg>