<?xml version="1.0" standalone="no"?><!DOCTYPE svg PUBLIC "-//W3C//DTD SVG 1.1//EN" "http://www.w3.org/Graphics/SVG/1.1/DTD/svg11.dtd"><svg t="1582858585668" class="icon" viewBox="0 0 1024 1024" version="1.1" xmlns="http://www.w3.org/2000/svg" p-id="9044" xmlns:xlink="http://www.w3.org/1999/xlink" width="300" height="300"><defs><style type="text/css"></style></defs><path d="M703.312 580.423c31.645 0 57.297-25.652 57.297-57.295s-25.652-57.299-57.297-57.299c-31.643 0-57.297 25.656-57.297 57.299s25.653 57.295 57.297 57.295z m0-76.394c10.548 0 19.099 8.551 19.099 19.099 0 10.546-8.551 19.099-19.099 19.099-10.547 0-19.099-8.553-19.099-19.099 0-10.549 8.552-19.099 19.099-19.099z m-381.981 76.394c31.645 0 57.297-25.652 57.297-57.295s-25.652-57.299-57.297-57.299c-31.645 0-57.295 25.656-57.295 57.299s25.65 57.295 57.295 57.295z m0-76.394c10.548 0 19.099 8.551 19.099 19.099 0 10.546-8.551 19.099-19.099 19.099-10.546 0-19.099-8.553-19.099-19.099 0-10.549 8.553-19.099 19.099-19.099z m190.99 286.485c31.645 0 57.297-25.656 57.297-57.299s-25.652-57.295-57.297-57.295c-31.643 0-57.297 25.652-57.297 57.295s25.654 57.299 57.297 57.299z m0-76.396c10.55 0 19.099 8.551 19.099 19.097 0 10.548-8.549 19.099-19.099 19.099-10.547 0-19.099-8.551-19.099-19.099 0-10.547 8.553-19.097 19.099-19.097z m190.991 76.396c31.645 0 57.297-25.656 57.297-57.299s-25.652-57.295-57.297-57.295c-31.643 0-57.297 25.652-57.297 57.295s25.653 57.299 57.297 57.299z m0-76.396c10.548 0 19.099 8.551 19.099 19.097 0 10.548-8.551 19.099-19.099 19.099-10.547 0-19.099-8.551-19.099-19.099 0-10.547 8.552-19.097 19.099-19.097z m152.794-592.07h-95.497v-0.002c0-31.643-25.652-57.297-57.297-57.297-31.643 0-57.297 25.654-57.297 57.297v0.002h-76.396v-0.002c0-31.643-25.652-57.297-57.297-57.297-31.643 0-57.297 25.654-57.297 57.297v0.002h-76.396v-0.002c0-31.643-25.652-57.297-57.297-57.297-31.645 0-57.295 25.654-57.295 57.297v0.002h-95.495c-42.192 0-76.398 34.204-76.398 76.396v687.563c0 42.194 34.206 76.398 76.398 76.398h687.565c42.192 0 76.394-34.204 76.394-76.398V198.444c-0.001-42.191-34.204-76.396-76.395-76.396z m-171.893-0.002c0-10.548 8.553-19.099 19.099-19.099 10.548 0 19.099 8.551 19.099 19.099v38.2c0 10.546-8.551 19.097-19.099 19.097-10.547 0-19.099-8.551-19.099-19.097v-38.2z m-190.991 0c0-10.548 8.553-19.099 19.099-19.099 10.55 0 19.099 8.551 19.099 19.099v38.2c0 10.546-8.549 19.097-19.099 19.097-10.547 0-19.099-8.551-19.099-19.097v-38.2z m-190.99 0c0-10.548 8.553-19.099 19.099-19.099 10.548 0 19.099 8.551 19.099 19.099v38.2c0 10.546-8.551 19.097-19.099 19.097-10.546 0-19.099-8.551-19.099-19.097v-38.2z m592.07 763.961c0 21.097-17.101 38.202-38.196 38.202H168.541c-21.099 0-38.198-17.105-38.198-38.202V332.135h763.959v553.872z m0-592.068H130.343v-95.495c0-21.097 17.099-38.196 38.198-38.196h95.495c0.001 31.642 25.651 57.295 57.295 57.295 31.645 0 57.296-25.653 57.297-57.295h76.396c0.001 31.642 25.654 57.295 57.297 57.295 31.645 0 57.296-25.653 57.297-57.295h76.396c0.001 31.642 25.654 57.295 57.297 57.295 31.645 0 57.296-25.653 57.297-57.295h95.497c21.095 0 38.196 17.099 38.196 38.196v95.495zM512.321 580.423c31.645 0 57.297-25.652 57.297-57.295s-25.652-57.299-57.297-57.299c-31.643 0-57.297 25.656-57.297 57.299s25.654 57.295 57.297 57.295z m0-76.394c10.55 0 19.099 8.551 19.099 19.099 0 10.546-8.549 19.099-19.099 19.099-10.547 0-19.099-8.553-19.099-19.099 0-10.549 8.553-19.099 19.099-19.099z m-190.99 286.485c31.645 0 57.297-25.656 57.297-57.299s-25.652-57.295-57.297-57.295c-31.645 0-57.295 25.652-57.295 57.295s25.65 57.299 57.295 57.299z m0-76.396c10.548 0 19.099 8.551 19.099 19.097 0 10.548-8.551 19.099-19.099 19.099-10.546 0-19.099-8.551-19.099-19.099 0-10.547 8.553-19.097 19.099-19.097z" p-id="9045"></path></svg>