<?xml version="1.0" standalone="no"?><!DOCTYPE svg PUBLIC "-//W3C//DTD SVG 1.1//EN" "http://www.w3.org/Graphics/SVG/1.1/DTD/svg11.dtd"><svg t="1582798800716" class="icon" viewBox="0 0 1024 1024" version="1.1" xmlns="http://www.w3.org/2000/svg" p-id="7845" xmlns:xlink="http://www.w3.org/1999/xlink" width="200" height="200"><defs><style type="text/css"></style></defs><path d="M748.352 209.152v123.392h67.392c31.488 1.152 57.856 12.224 79.168 33.28 21.312 20.992 32.256 47.232 32.832 78.72v370.112c-0.576 31.488-11.52 57.728-32.832 78.72-21.312 20.992-47.68 32.064-79.168 33.28H199.744c-31.488-1.152-57.92-12.224-79.168-33.28-21.312-20.992-32.256-47.232-32.832-78.72V439.296c0.576-31.488 11.52-57.856 32.832-79.168s47.68-32.256 79.168-32.832h67.392V209.152H143.744c-16.896 0-30.464-4.928-40.704-14.848-10.24-9.92-15.296-23.616-15.296-41.152v-5.248c0-16.896 5.12-30.464 15.296-40.704 10.176-10.176 23.744-15.296 40.704-15.296h728c16.896 0 30.464 5.12 40.704 15.296 10.176 10.24 15.296 23.744 15.296 40.704v5.248c0 17.472-5.12 31.232-15.296 41.152-10.24 9.92-23.744 14.848-40.704 14.848h-123.392z m-61.248 419.968c-0.576-16.896-5.824-30.336-15.744-40.256-9.92-9.92-23.36-15.168-40.256-15.744H384.384c-16.896 0.576-30.336 5.824-40.256 15.744-9.92 9.92-15.168 23.36-15.744 40.256v6.144c0.576 16.896 5.824 30.336 15.744 40.256 9.92 9.92 23.296 15.168 40.256 15.744h246.72c16.896-0.576 30.336-5.824 40.256-15.744 9.92-9.92 15.168-23.296 15.744-40.256v-6.144z m-56-296.576V209.152h-240.64v123.392h240.64z" p-id="7846"></path></svg>