<?xml version="1.0" standalone="no"?><!DOCTYPE svg PUBLIC "-//W3C//DTD SVG 1.1//EN" "http://www.w3.org/Graphics/SVG/1.1/DTD/svg11.dtd"><svg t="1582798808875" class="icon" viewBox="0 0 1024 1024" version="1.1" xmlns="http://www.w3.org/2000/svg" p-id="8119" xmlns:xlink="http://www.w3.org/1999/xlink" width="200" height="200"><defs><style type="text/css"></style></defs><path d="M401.1 312.7m-193.8 0a193.8 193.8 0 1 0 387.6 0 193.8 193.8 0 1 0-387.6 0Z" p-id="8120"></path><path d="M738.9 833.2c0 169.3-675.5 169.3-675.5 0S214.6 562 401.1 562s337.8 101.9 337.8 271.2zM644.7 63.5c-47.2 0-90.4 16.9-124 44.9 75.3 36.5 127.4 113.5 127.4 202.9 0 50.8-17 97.5-45.3 135.2 13.5 3 27.4 4.6 41.8 4.6 107 0 193.8-86.8 193.8-193.8S751.8 63.5 644.7 63.5z" p-id="8121"></path><path d="M622.6 513.2c-20.4 0-83.1 6.1-104.2 16.1 131.8 26.8 275.1 129.3 275.1 293.1 0 25.6-10.4 48.2-28.7 67.9 110.1-18 195.5-58.2 195.5-120.6 0.1-175.4-151.2-256.5-337.7-256.5z" p-id="8122"></path></svg>