<?xml version="1.0" standalone="no"?><!DOCTYPE svg PUBLIC "-//W3C//DTD SVG 1.1//EN" "http://www.w3.org/Graphics/SVG/1.1/DTD/svg11.dtd"><svg t="1582858208775" class="icon" viewBox="0 0 1126 1024" version="1.1" xmlns="http://www.w3.org/2000/svg" p-id="4396" xmlns:xlink="http://www.w3.org/1999/xlink" width="329.8828125" height="300"><defs><style type="text/css"></style></defs><path d="M1119.223717 473.967851l-21.390528-24.533103a23.727014 23.727014 0 0 1-5.841215-15.584361V264.583665c27.967736-17.36009 72.045543-31.624337-28.306527-74.954468C948.695293 142.654148 746.647673 64.229998 644.870346 22.675596c-0.490662-0.198601-8.913694-3.901931-9.345943-4.088851-76.204488-31.799573-109.698014-18.201225-171.357877 6.495431-104.557745 39.206234-278.041824 110.983081-397.377842 155.902023-91.578565 33.960823-86.017729 59.346742-1.448622 99.382428 126.602489 60.000958 369.491883 152.175328 423.196012 172.152283s92.454748 20.105461 146.591126-4.030438c51.636339-23.014386 137.32696-52.173731 354.398184-141.07702a23.727014 23.727014 0 0 1 32.710803 21.951285v102.992299a23.727014 23.727014 0 0 1-6.063181 15.841375l-23.750379 26.58921a23.727014 23.727014 0 0 0 1.343479 33.061275l43.049753 40.72495a23.727014 23.727014 0 0 0 31.857985 0.712628l48.201705-41.788051a23.727014 23.727014 0 0 0 2.348168-33.528572z" p-id="4397"></path><path d="M941.019936 494.891082c-93.961781 36.367403-235.400956 91.321552-293.485996 111.999452-79.604075 28.329892-101.508631 18.072719-166.22929-1.460303-89.475728-27.009777-220.318939-82.302716-296.406603-108.728373a23.212988 23.212988 0 0 0-30.806567 21.939603v369.281599a23.212988 23.212988 0 0 0 11.098308 19.860131c42.757692 26.180325 204.594389 116.216809 408.09063 116.216809 188.916569 0 346.535909-89.954708 388.417419-116.193445a23.212988 23.212988 0 0 0 10.911389-19.684893v-371.501261a23.212988 23.212988 0 0 0-31.58929-21.729319z" p-id="4398"></path></svg>